<?xml version="1.0" standalone="no"?>
<!DOCTYPE svg PUBLIC "-//W3C//DTD SVG 20010904//EN"
 "http://www.w3.org/TR/2001/REC-SVG-20010904/DTD/svg10.dtd">
<svg version="1.0" xmlns="http://www.w3.org/2000/svg"
 width="128.000000pt" height="128.000000pt" viewBox="0 0 128.000000 128.000000"
 preserveAspectRatio="xMidYMid meet">
<metadata>
Created by potrace 1.16, written by Peter Selinger 2001-2019
</metadata>
<g transform="translate(0.000000,128.000000) scale(0.100000,-0.100000)"
fill="#000000" stroke="none">
<path d="M135 1261 c-22 -10 -54 -34 -72 -52 -64 -67 -63 -61 -63 -571 0 -516
-1 -507 71 -575 67 -64 61 -63 571 -63 516 0 507 -1 575 71 64 67 63 61 63
569 0 508 1 502 -63 569 -68 72 -58 71 -577 71 -432 0 -468 -2 -505 -19z m943
-599 l3 -122 50 0 c47 0 50 -2 47 -22 -3 -21 -9 -23 -70 -26 l-68 -3 0 151 c0
139 1 151 18 148 15 -3 17 -18 20 -126z m-888 48 l0 -70 80 0 80 0 0 70 c0 63
2 70 20 70 19 0 20 -7 20 -145 0 -138 -1 -145 -20 -145 -17 0 -20 7 -20 50 l0
50 -80 0 -80 0 0 -50 c0 -43 -3 -50 -20 -50 -19 0 -20 7 -20 145 0 138 1 145
20 145 18 0 20 -7 20 -70z m440 50 c0 -17 -7 -20 -45 -20 l-45 0 0 -126 c0
-124 0 -125 -22 -122 -22 3 -23 7 -26 126 l-3 122 -39 0 c-33 0 -40 3 -40 20
0 19 7 20 110 20 103 0 110 -1 110 -20z m129 -61 c17 -45 34 -92 37 -105 3
-13 9 -26 13 -28 3 -2 26 45 50 105 40 103 44 109 71 109 l28 0 7 -117 c3 -65
9 -131 12 -146 4 -26 2 -28 -19 -25 -22 3 -23 8 -30 108 -5 58 -9 109 -11 113
-1 5 -22 -41 -45 -102 -57 -146 -67 -147 -118 -7 -21 57 -42 102 -46 100 -5
-3 -8 -35 -8 -72 0 -104 -9 -142 -32 -142 -19 0 -20 5 -14 63 3 34 9 99 12
145 7 82 7 82 34 82 26 0 31 -6 59 -81z"/>
</g>
</svg>
