<?xml version="1.0" standalone="no"?>
<!DOCTYPE svg PUBLIC "-//W3C//DTD SVG 20010904//EN"
 "http://www.w3.org/TR/2001/REC-SVG-20010904/DTD/svg10.dtd">
<svg version="1.0" xmlns="http://www.w3.org/2000/svg"
 width="128.000000pt" height="128.000000pt" viewBox="0 0 128.000000 128.000000"
 preserveAspectRatio="xMidYMid meet">
<metadata>
Created by potrace 1.16, written by Peter Selinger 2001-2019
</metadata>
<g transform="translate(0.000000,128.000000) scale(0.100000,-0.100000)"
fill="#000000" stroke="none">
<path d="M135 1261 c-22 -10 -54 -34 -72 -52 -64 -67 -63 -61 -63 -571 0 -516
-1 -507 71 -575 67 -64 61 -63 571 -63 516 0 507 -1 575 71 64 67 63 61 63
569 0 508 1 502 -63 569 -68 72 -58 71 -577 71 -432 0 -468 -2 -505 -19z m343
-470 c8 -5 12 -17 10 -27 -3 -15 -12 -17 -59 -15 -48 2 -61 -1 -85 -22 -26
-23 -29 -31 -29 -87 0 -56 3 -64 29 -87 24 -21 37 -24 85 -22 50 3 56 1 59
-18 3 -23 -20 -33 -81 -33 -100 0 -170 93 -147 194 11 50 36 84 80 107 36 20
115 25 138 10z m250 0 c8 -5 12 -17 10 -27 -3 -15 -11 -18 -55 -15 -44 2 -52
0 -58 -18 -9 -28 -1 -38 54 -65 26 -14 52 -30 58 -38 34 -42 20 -108 -28 -133
-54 -29 -151 -12 -142 24 4 15 16 18 66 17 l62 -1 3 32 c3 29 -1 35 -35 50
-94 42 -118 100 -64 154 24 23 38 29 73 29 24 0 49 -4 56 -9z m260 3 c16 -5
22 -13 20 -27 -3 -19 -9 -21 -56 -18 -42 2 -53 -1 -59 -15 -9 -25 8 -46 62
-74 81 -41 93 -109 28 -160 -23 -18 -37 -21 -81 -18 -57 5 -76 16 -67 40 5 11
21 15 68 14 l62 -1 3 33 c3 30 0 34 -42 51 -62 27 -86 54 -86 95 0 63 70 100
148 80z"/>
</g>
</svg>
